<svg xmlns="http://www.w3.org/2000/svg" xmlns:xlink="http://www.w3.org/1999/xlink" width="500" zoomAndPan="magnify" viewBox="0 0 375 374.999991" height="500" preserveAspectRatio="xMidYMid meet" version="1.0"><defs><g/><clipPath id="388a209522"><path d="M 58 1 L 334 1 L 334 362 L 58 362 Z M 58 1 " clip-rule="nonzero"/></clipPath><clipPath id="b9251212d4"><path d="M -8.558594 292.027344 L 170.820312 -56.804688 L 383.585938 52.609375 L 204.207031 401.4375 Z M -8.558594 292.027344 " clip-rule="nonzero"/></clipPath><clipPath id="c0531dfd6c"><path d="M -8.558594 292.027344 L 170.820312 -56.804688 L 383.585938 52.609375 L 204.207031 401.4375 Z M -8.558594 292.027344 " clip-rule="nonzero"/></clipPath><clipPath id="5120fa9f8c"><path d="M 217 308 L 224 308 L 224 320 L 217 320 Z M 217 308 " clip-rule="nonzero"/></clipPath><clipPath id="71a93e62d5"><path d="M -8.558594 292.027344 L 170.820312 -56.804688 L 383.585938 52.609375 L 204.207031 401.4375 Z M -8.558594 292.027344 " clip-rule="nonzero"/></clipPath><clipPath id="95b1c5c72b"><path d="M -8.558594 292.027344 L 170.820312 -56.804688 L 383.585938 52.609375 L 204.207031 401.4375 Z M -8.558594 292.027344 " clip-rule="nonzero"/></clipPath><clipPath id="e0a4dd04d1"><path d="M 221 300 L 225 300 L 225 309 L 221 309 Z M 221 300 " clip-rule="nonzero"/></clipPath><clipPath id="eab6e57f7e"><path d="M -8.558594 292.027344 L 170.820312 -56.804688 L 383.585938 52.609375 L 204.207031 401.4375 Z M -8.558594 292.027344 " clip-rule="nonzero"/></clipPath><clipPath id="46485f7d61"><path d="M -8.558594 292.027344 L 170.820312 -56.804688 L 383.585938 52.609375 L 204.207031 401.4375 Z M -8.558594 292.027344 " clip-rule="nonzero"/></clipPath><clipPath id="1d4b31abd0"><path d="M 205 350 L 209 350 L 209 354 L 205 354 Z M 205 350 " clip-rule="nonzero"/></clipPath><clipPath id="64170ddc47"><path d="M -8.558594 292.027344 L 170.820312 -56.804688 L 383.585938 52.609375 L 204.207031 401.4375 Z M -8.558594 292.027344 " clip-rule="nonzero"/></clipPath><clipPath id="be8529a110"><path d="M -8.558594 292.027344 L 170.820312 -56.804688 L 383.585938 52.609375 L 204.207031 401.4375 Z M -8.558594 292.027344 " clip-rule="nonzero"/></clipPath><clipPath id="0645312227"><path d="M 223 294 L 227 294 L 227 301 L 223 301 Z M 223 294 " clip-rule="nonzero"/></clipPath><clipPath id="2786e4043b"><path d="M -8.558594 292.027344 L 170.820312 -56.804688 L 383.585938 52.609375 L 204.207031 401.4375 Z M -8.558594 292.027344 " clip-rule="nonzero"/></clipPath><clipPath id="ede4e31ef6"><path d="M -8.558594 292.027344 L 170.820312 -56.804688 L 383.585938 52.609375 L 204.207031 401.4375 Z M -8.558594 292.027344 " clip-rule="nonzero"/></clipPath></defs><rect x="-37.5" width="450" fill="#ffffff" y="-37.499999" height="449.999989" fill-opacity="1"/><rect x="-37.5" width="450" fill="#ffffff" y="-37.499999" height="449.999989" fill-opacity="1"/><rect x="-37.5" width="450" fill="#737373" y="-37.499999" height="449.999989" fill-opacity="1"/><g clip-path="url(#388a209522)"><g clip-path="url(#b9251212d4)"><g clip-path="url(#c0531dfd6c)"><path fill="#222222" d="M 205.535156 352.960938 C 206.179688 354.980469 206.164062 356.417969 203.949219 357.445312 C 203.375 357.628906 203.078125 358.203125 202.496094 358.867188 C 202.214844 358.480469 201.839844 357.804688 201.273438 357.03125 C 200.691406 357.695312 200.101562 358.839844 199.335938 358.925781 C 198.566406 359.011719 197.8125 358.140625 196.574219 357.265625 C 196.375 358.125 195.886719 359.078125 195.683594 359.9375 L 192.808594 359.90625 C 193.007812 359.523438 193.109375 358.855469 193.402344 358.285156 L 193.023438 358.089844 C 192.539062 358.5625 191.957031 359.226562 191.957031 359.226562 C 190.898438 359.40625 190.421875 359.398438 190.035156 359.683594 C 189.648438 359.964844 189.261719 360.25 188.972656 360.34375 C 188.296875 360.71875 187.722656 360.902344 186.855469 361.179688 C 186.867188 360.222656 186.96875 359.554688 186.980469 358.59375 C 186.988281 358.117188 187.28125 357.542969 187.285156 357.066406 C 186.710938 357.25 186.324219 357.535156 185.746094 357.71875 C 185.167969 357.902344 184.402344 357.992188 183.730469 357.886719 C 182.203125 357.582031 180.773438 357.085938 179.242188 356.78125 C 178.285156 356.773438 177.128906 357.140625 176.074219 357.320312 C 175.785156 357.414062 175.300781 357.886719 175.015625 357.980469 C 173.289062 358.058594 171.09375 357.171875 169.84375 357.730469 C 167.339844 358.851562 166.222656 355.871094 164.109375 356.707031 C 163.53125 356.894531 162.664062 357.171875 162.09375 356.875 C 160.761719 356.191406 158.914062 358.375 157.984375 355.96875 C 157.890625 355.679688 155.496094 355.652344 154.535156 356.121094 C 151.355469 357.617188 148.410156 355.382812 145.34375 355.730469 C 144.863281 355.722656 144.394531 354.761719 143.824219 354.46875 C 141.027344 356.160156 138.445312 355.554688 136.847656 353.046875 C 135.59375 353.609375 134.535156 354.265625 133.378906 354.636719 L 132.515625 354.914062 C 133.613281 350.902344 129.980469 350.480469 127.988281 348.730469 C 127.214844 349.296875 126.730469 349.773438 125.859375 350.527344 C 125.675781 349.953125 125.679688 349.472656 125.496094 348.894531 C 123.476562 349.542969 121.039062 353.347656 119.46875 347.964844 C 118.5 348.914062 117.628906 349.667969 116.5625 350.804688 C 116.382812 349.75 116.296875 348.984375 116.210938 348.214844 C 115.535156 348.589844 114.953125 349.253906 113.988281 349.722656 C 112.644531 349.996094 111.828125 345.964844 109.117188 348.421875 L 106.261719 346.953125 C 106.167969 346.664062 106.082031 345.898438 106.09375 344.941406 C 105.414062 345.792969 104.929688 346.269531 104.832031 346.457031 C 102.730469 345.859375 100.820312 345.359375 99.097656 344.957031 C 98.902344 345.339844 98.613281 345.429688 98.417969 345.8125 C 98.523438 345.140625 98.527344 344.664062 98.632812 343.992188 C 98.441406 343.894531 98.152344 343.988281 97.960938 343.890625 C 97.1875 344.457031 96.703125 344.929688 95.933594 345.496094 C 95.742188 345.398438 95.171875 345.105469 94.886719 344.71875 C 95.179688 344.144531 95.761719 343.480469 96.058594 342.910156 C 93.960938 333.402344 94.207031 328.710938 96.917969 317.820312 C 98.324219 311.800781 99.257812 305.777344 100.378906 299.851562 C 100.589844 298.03125 100.898438 296.023438 100.632812 294.199219 C 100.453125 293.144531 99.21875 292.269531 98.171875 291.488281 C 97.601562 291.195312 96.449219 291.566406 95.867188 292.230469 C 94.222656 293.554688 92.988281 292.675781 91.941406 291.898438 C 90.789062 292.269531 89.824219 292.738281 88.671875 293.105469 C 88.203125 292.144531 87.828125 291.46875 87.453125 290.792969 C 86.457031 294.136719 84.28125 291.8125 82.941406 291.605469 C 80.164062 291.382812 77.78125 290.398438 75.011719 289.695312 C 75.109375 289.503906 75.304688 289.125 75.691406 288.839844 C 72.34375 288.324219 69.285156 287.714844 65.9375 287.199219 C 66.035156 287.007812 65.945312 286.71875 66.042969 286.527344 C 65.175781 286.804688 64.402344 287.371094 63.25 287.742188 C 62.414062 285.625 62.054688 283.515625 60.054688 282.246094 C 57.675781 280.78125 58.285156 277.722656 58.410156 275.136719 C 59.066406 268.25 60.007812 261.265625 60.46875 254.277344 C 60.804688 249.875 60.664062 245.464844 61.003906 241.0625 C 61.242188 236.851562 61.480469 232.636719 62.007812 228.332031 C 62.4375 224.21875 63.15625 220.011719 63.96875 216.09375 C 64.773438 212.652344 66.058594 209.21875 66.863281 205.777344 C 67.359375 204.347656 67.183594 202.8125 67.390625 201.472656 C 68.8125 194.496094 70.421875 187.617188 71.742188 180.828125 C 73.054688 175 74.078125 169.265625 76.152344 163.828125 C 77.039062 161.632812 75.832031 158.363281 78.910156 157.058594 C 79.199219 156.964844 78.828125 155.808594 79.125 155.238281 C 79.421875 154.1875 80.003906 153.523438 80.496094 152.570312 C 77.34375 151.675781 80.335938 149.601562 80.636719 148.550781 C 81.347656 144.820312 82.640625 140.910156 84.210938 137.382812 C 87.558594 129.46875 88.804688 120.957031 92.242188 113.332031 C 94.117188 108.753906 95.417969 103.882812 97.097656 99.207031 C 97.292969 98.828125 97.03125 96.523438 98.355469 98.167969 C 98.816406 91.179688 102.621094 85.1875 104.804688 78.601562 C 105.566406 78.992188 105.945312 79.1875 106.421875 79.671875 C 106.425781 79.195312 106.53125 78.523438 106.53125 78.523438 C 104.519531 78.214844 105.109375 77.070312 105.507812 75.832031 C 106.785156 72.875 108.160156 69.730469 109.441406 66.773438 C 110.914062 63.4375 112.101562 60.195312 113.578125 56.859375 C 113.871094 56.285156 114.355469 55.8125 114.839844 55.339844 C 115.613281 54.773438 115.808594 54.390625 115.726562 53.144531 C 115.453125 51.800781 116.625 49.996094 117.308594 48.660156 C 120.15625 42.65625 123.003906 36.65625 126.039062 30.75 C 128.195312 26.558594 130.632812 22.753906 132.976562 18.660156 C 134.246094 16.664062 135.515625 14.667969 136.589844 12.570312 C 137.472656 10.855469 143.058594 8.429688 144.097656 9.6875 C 145.417969 11.328125 147.730469 10.109375 148.765625 11.847656 C 148.765625 11.847656 149.441406 11.46875 149.828125 11.1875 C 150.480469 12.726562 151.148438 12.832031 155.546875 13.648438 C 157.746094 14.054688 160.03125 15.230469 162.125 16.308594 C 162.988281 16.507812 163.75 16.902344 164.796875 17.199219 C 166.898438 17.800781 169 18.398438 171.292969 19.09375 C 170.992188 20.144531 170.503906 21.097656 170.105469 22.335938 C 172.609375 21.214844 175.296875 20.671875 177.078125 24.238281 L 177.566406 23.285156 C 179.074219 25.503906 180.773438 27.824219 182.09375 29.464844 C 184.691406 28.632812 187.1875 27.992188 189.59375 27.058594 C 190.171875 26.875 191.132812 26.40625 191.042969 26.117188 C 191.078125 22.765625 194.144531 22.894531 195.878906 21.863281 C 197.230469 21.109375 199.171875 18.738281 201.054688 21.632812 C 201.054688 21.632812 202.59375 20.980469 203.078125 20.507812 C 203.859375 19.460938 204.253906 18.21875 204.847656 16.597656 L 222.945312 25.902344 L 223.140625 25.523438 C 223.421875 25.910156 223.894531 26.394531 224.085938 26.492188 C 226.960938 26.523438 228.28125 28.167969 227.769531 31.035156 C 227.671875 31.226562 227.957031 31.613281 228.050781 31.902344 C 228.238281 32 228.621094 32.195312 228.71875 32.003906 L 229.207031 31.050781 L 229.242188 28.179688 L 229.816406 27.992188 C 230.191406 28.667969 230.570312 29.34375 231.132812 30.117188 C 232 29.839844 232.867188 29.5625 234.117188 29 C 234.300781 29.578125 234.390625 30.34375 234.863281 30.828125 C 235.335938 31.3125 235.222656 32.941406 236.765625 31.808594 C 237.152344 31.523438 238.488281 32.210938 239.539062 32.511719 C 236.734375 34.683594 240.070312 36.15625 239.953125 38.261719 C 239.472656 38.257812 238.703125 38.34375 237.746094 38.332031 C 238.410156 38.914062 238.882812 39.398438 239.074219 39.5 C 238.78125 40.070312 238.003906 41.113281 238.09375 41.402344 C 239.042969 42.371094 240.082031 43.628906 241.230469 43.738281 C 242.089844 43.9375 243.726562 43.09375 244.21875 42.144531 C 246.160156 39.769531 247.722656 37.199219 249.285156 34.632812 C 250.257812 33.207031 250.660156 31.484375 251.445312 29.960938 C 252.714844 27.964844 254.074219 26.253906 255.339844 24.257812 C 255.734375 23.496094 255.84375 22.347656 256.234375 21.585938 C 257.503906 19.589844 258.867188 17.398438 260.328125 15.5 C 260.523438 15.121094 261.289062 15.03125 261.578125 14.941406 C 262.453125 13.703125 263.519531 12.566406 263.917969 11.324219 C 264.71875 8.367188 266.355469 7.523438 269.144531 6.785156 C 270.199219 6.605469 271.085938 4.414062 271.484375 3.171875 C 272.667969 -0.0703125 274.65625 2.15625 276.382812 2.078125 C 277.148438 1.992188 277.910156 2.382812 278.480469 2.675781 C 280.203125 3.078125 281.4375 3.957031 281.023438 6.632812 C 282.175781 6.261719 282.949219 5.695312 284.003906 5.515625 C 284.582031 5.332031 285.152344 5.625 285.726562 5.921875 C 286.488281 6.3125 287.242188 7.183594 287.820312 6.996094 C 289.648438 6.25 290.019531 7.40625 290.199219 8.460938 C 291.347656 8.570312 292.5 8.199219 293.261719 8.59375 C 294.597656 9.277344 295.441406 10.914062 297.175781 9.882812 L 297.367188 9.980469 C 298.957031 13.445312 302.804688 12.050781 305.175781 13.996094 C 305.558594 14.191406 306.320312 14.582031 306.894531 14.398438 C 308.4375 13.746094 309.09375 14.804688 310.042969 15.773438 C 311.363281 17.417969 312.6875 19.0625 313.726562 20.320312 C 312.949219 21.363281 311.882812 22.5 311.386719 23.933594 C 310.699219 25.265625 310.492188 26.605469 310 28.035156 C 311.335938 28.242188 312.980469 26.921875 313.523438 29.609375 C 313.613281 30.375 315.523438 30.878906 316.574219 31.175781 C 318.003906 31.671875 319.820312 31.882812 321.058594 32.761719 C 321.628906 33.054688 321.515625 34.679688 321.40625 35.828125 C 321.476562 38.035156 319.625 40.695312 323.058594 41.980469 C 322.566406 43.410156 321.492188 45.027344 324.46875 44.390625 C 325.8125 44.117188 326.363281 46.328125 325.476562 48.519531 C 324.492188 50.90625 323.886719 53.484375 323.09375 55.964844 C 322.394531 58.257812 321.699219 60.550781 320.8125 62.742188 C 320.519531 63.3125 319.554688 63.78125 318.972656 64.445312 C 318.871094 65.117188 318.761719 66.265625 318.652344 67.414062 C 317.214844 67.394531 316.257812 67.386719 315.207031 67.085938 C 315.109375 67.277344 315.011719 67.46875 315.203125 67.566406 L 317.867188 68.9375 C 313.847656 68.796875 316.007812 72.554688 314.652344 73.785156 C 315.230469 73.601562 315.707031 73.605469 316.476562 73.519531 C 316.367188 74.667969 316.164062 75.527344 315.964844 76.386719 L 318.25 77.5625 C 318.707031 79.484375 318.980469 80.828125 319.441406 82.269531 C 320.023438 81.605469 320.796875 81.039062 321.765625 80.09375 C 321.160156 82.671875 321.613281 85.074219 319.867188 87.066406 C 319.382812 87.539062 319.75 88.691406 319.839844 89.460938 C 320.585938 91.289062 320.949219 92.921875 318.929688 93.570312 C 320.15625 95.402344 321.285156 96.949219 322.417969 98.496094 C 321.65625 98.101562 320.988281 98 320.226562 97.605469 C 320.023438 98.46875 319.632812 99.230469 319.429688 100.089844 C 320.671875 100.484375 321.339844 100.589844 322.390625 100.890625 C 322.402344 99.929688 322.316406 99.164062 322.226562 98.394531 C 325.003906 98.621094 325.488281 98.144531 325.527344 94.792969 C 326.484375 94.804688 327.441406 94.816406 328.589844 94.921875 C 327.894531 97.214844 327.195312 99.507812 326.59375 102.085938 C 328.992188 101.632812 329.902344 105.957031 332.039062 103.203125 C 332.410156 104.355469 333.261719 105.515625 333.339844 106.761719 C 333.417969 108.484375 332.824219 110.109375 332.421875 111.828125 C 331.726562 114.117188 330.929688 116.601562 330.042969 118.792969 C 328.765625 121.75 327.484375 124.703125 326.304688 127.46875 C 325.417969 129.664062 325.011719 131.863281 324.222656 133.863281 C 323.628906 135.488281 322.363281 137.003906 321.773438 138.628906 C 320.878906 141.300781 320.65625 144.074219 319.953125 146.84375 C 319.851562 147.515625 319.460938 148.277344 319.164062 148.847656 C 318.675781 149.800781 317.234375 150.261719 318.464844 151.617188 C 315.765625 153.121094 318.402344 156.886719 315.511719 158.292969 C 315.226562 158.382812 315.503906 159.25 315.496094 159.726562 L 315.480469 161.164062 C 313.691406 166.988281 311.710938 172.714844 309.730469 178.441406 C 308.738281 181.300781 307.367188 183.96875 306.1875 186.734375 C 305.496094 188.546875 305.183594 190.554688 304.492188 192.367188 C 304.097656 193.609375 303.316406 194.652344 302.34375 196.078125 C 303.574219 197.433594 302.894531 198.289062 301.070312 198.554688 C 301.042969 200.949219 301.015625 203.34375 299.269531 205.335938 C 298.6875 206 298.671875 207.4375 298.179688 208.390625 C 297.789062 209.152344 297.207031 209.816406 296.433594 210.382812 C 295.660156 210.949219 294.027344 211.3125 296.027344 212.582031 C 296.214844 212.679688 295.425781 214.683594 295.03125 215.921875 C 294.234375 218.40625 293.152344 220.980469 292.261719 223.652344 C 291.695312 222.878906 291.21875 222.394531 290.746094 221.910156 L 290.457031 222.003906 L 291.273438 226.035156 C 291.824219 228.246094 290.65625 230.050781 289.675781 231.957031 C 288.792969 233.671875 287.625 235.480469 287.507812 237.105469 C 287.296875 238.921875 287.777344 238.929688 285.953125 239.195312 C 287.085938 240.742188 286.082031 244.5625 284.640625 245.023438 C 284.554688 244.257812 284.65625 243.589844 284.570312 242.820312 C 284.28125 242.914062 284.089844 242.816406 283.804688 242.90625 C 283.796875 243.386719 283.890625 243.675781 283.882812 244.152344 C 284.042969 247.125 282.386719 249.40625 281.402344 251.789062 C 280.613281 253.792969 278.871094 255.304688 277.414062 257.207031 L 275.699219 256.324219 C 273.222656 255.050781 271.203125 255.699219 269.839844 257.886719 C 269.445312 258.648438 268.949219 260.078125 267.144531 258.910156 C 265.910156 258.035156 264.167969 259.546875 263.667969 261.457031 C 263.363281 262.988281 262.386719 264.414062 261.703125 265.746094 C 261.414062 265.839844 261.027344 266.121094 260.832031 266.503906 C 260.238281 268.125 259.933594 269.652344 259.148438 271.179688 C 257.964844 274.421875 256.683594 277.378906 255.5 280.621094 C 255.105469 281.382812 254.523438 282.046875 253.9375 283.191406 C 253.757812 282.132812 253.667969 281.367188 253.582031 280.597656 C 251.988281 286.042969 248.15625 286 244.046875 285.089844 C 244.144531 284.898438 244.152344 284.421875 244.347656 284.039062 C 241.71875 287.746094 238.285156 286.460938 234.746094 285.847656 C 234.261719 286.320312 233.292969 287.269531 232.519531 287.832031 C 232.144531 287.160156 231.675781 286.195312 231.300781 285.519531 C 230.71875 286.183594 229.847656 286.941406 229.457031 287.703125 C 228.464844 290.566406 226.910156 292.65625 223.742188 293.195312 C 225.398438 290.914062 226.953125 288.824219 228.609375 286.542969 C 227.46875 285.476562 226.808594 284.894531 225.953125 284.214844 C 226.214844 286.515625 226.214844 286.515625 224.386719 287.261719 C 223.710938 287.636719 223.035156 288.015625 222.648438 288.296875 C 223.964844 290.417969 221.460938 291.542969 221.34375 293.648438 C 222.398438 293.46875 223.164062 293.378906 223.933594 293.292969 C 222.871094 293.953125 223.226562 296.542969 221.136719 294.984375 C 220.734375 296.707031 220.332031 298.425781 220.214844 300.054688 C 220.207031 301.011719 220.960938 301.882812 221.429688 302.84375 L 220.289062 302.257812 C 220.089844 302.636719 219.894531 303.019531 219.988281 303.308594 C 219.957031 306.179688 220.015625 309.34375 219.984375 312.21875 C 218.925781 312.398438 218.257812 312.292969 218.160156 312.484375 C 218.234375 314.210938 218.691406 316.128906 217.914062 317.175781 C 217.328125 318.320312 215.308594 318.964844 214.148438 319.816406 C 215.101562 320.304688 215.957031 320.984375 216.90625 321.476562 C 213.828125 322.78125 213.820312 323.261719 216.566406 326.355469 C 217.25 325.023438 217.746094 323.59375 218.53125 322.066406 L 217.195312 321.382812 C 218.0625 321.105469 218.738281 320.730469 219.601562 320.453125 C 219.984375 320.648438 220.835938 321.328125 220.835938 321.328125 C 219.859375 323.234375 221.550781 326.03125 218.851562 327.53125 C 218.464844 327.816406 218.644531 328.871094 218.351562 329.441406 L 217.761719 330.585938 C 217.402344 336.90625 214.753906 342.527344 213.246094 348.738281 C 211.050781 347.851562 210.65625 349.089844 210.253906 350.808594 C 210.246094 351.289062 209.285156 351.757812 208.988281 352.328125 C 209.1875 351.949219 209.191406 351.46875 209.289062 351.277344 C 208.722656 350.507812 207.964844 349.636719 207.492188 349.152344 C 207.007812 349.625 206.046875 350.09375 205.652344 350.855469 C 205.359375 351.425781 205.636719 352.292969 205.535156 352.960938 C 205.160156 352.285156 205.441406 352.671875 205.535156 352.960938 Z M 311.808594 155.664062 C 310.914062 158.335938 310.21875 160.625 309.421875 163.109375 L 310.375 163.597656 C 311.15625 162.554688 312.222656 161.414062 312.617188 160.175781 C 313.207031 159.03125 314.085938 157.316406 311.808594 155.664062 Z M 216.460938 327.027344 C 214.828125 327.390625 213.488281 327.183594 213.949219 329.105469 C 214.226562 329.972656 213.734375 330.921875 213.722656 331.882812 C 213.71875 332.359375 213.714844 332.839844 213.898438 333.417969 L 214.566406 333.519531 C 214.765625 333.136719 214.769531 332.660156 214.871094 331.988281 C 214.976562 331.320312 215.269531 330.75 215.5625 330.175781 C 215.667969 329.507812 215.964844 328.457031 216.460938 327.027344 Z M 255.671875 265.292969 C 257.304688 264.929688 258.648438 264.65625 259.992188 264.386719 C 259.238281 263.515625 258.578125 262.453125 257.914062 261.871094 C 256.945312 262.820312 256.359375 263.960938 255.671875 265.292969 Z M 208.734375 315.828125 C 211.191406 318.535156 212.726562 318.363281 213.613281 316.167969 C 212.179688 316.152344 210.742188 316.136719 208.734375 315.828125 Z M 208.734375 315.828125 " fill-opacity="1" fill-rule="nonzero"/></g></g></g><g clip-path="url(#5120fa9f8c)"><g clip-path="url(#71a93e62d5)"><g clip-path="url(#95b1c5c72b)"><path fill="#222222" d="M 219.035156 319.679688 C 218.558594 319.671875 218.175781 319.476562 217.316406 319.277344 C 219.917969 317.964844 219.175781 315.65625 219.679688 313.746094 C 220.179688 311.835938 221.917969 310.324219 222.992188 308.707031 L 222.800781 308.609375 C 224.511719 309.96875 223.15625 311.199219 222.660156 312.628906 C 222.261719 313.871094 221.097656 315.199219 221.277344 316.253906 C 221.921875 318.753906 220.667969 319.3125 219.035156 319.679688 Z M 219.035156 319.679688 " fill-opacity="1" fill-rule="nonzero"/></g></g></g><g clip-path="url(#e0a4dd04d1)"><g clip-path="url(#eab6e57f7e)"><g clip-path="url(#46485f7d61)"><path fill="#222222" d="M 222.992188 308.707031 C 222.90625 307.9375 222.4375 306.976562 222.257812 305.921875 C 222.078125 304.863281 222.089844 303.90625 221.910156 302.851562 C 222.199219 302.757812 222.675781 302.761719 223.0625 302.480469 L 224.808594 300.488281 C 224.007812 303.449219 223.40625 306.027344 222.992188 308.707031 Z M 222.992188 308.707031 " fill-opacity="1" fill-rule="nonzero"/></g></g></g><g clip-path="url(#1d4b31abd0)"><g clip-path="url(#64170ddc47)"><g clip-path="url(#be8529a110)"><path fill="#222222" d="M 205.535156 352.960938 C 205.441406 352.671875 205.160156 352.285156 205.066406 351.996094 C 205.289062 349.222656 207.472656 351.066406 208.820312 350.316406 C 208.625 350.695312 208.621094 351.175781 208.523438 351.367188 C 208.417969 352.035156 208.308594 353.183594 207.921875 353.464844 C 207.15625 353.554688 206.394531 353.160156 205.535156 352.960938 Z M 205.535156 352.960938 " fill-opacity="1" fill-rule="nonzero"/></g></g></g><g clip-path="url(#0645312227)"><g clip-path="url(#2786e4043b)"><g clip-path="url(#ede4e31ef6)"><path fill="#222222" d="M 224.710938 300.679688 C 222.609375 300.082031 223.78125 298.273438 223.792969 297.316406 C 223.894531 296.644531 224.765625 295.890625 225.542969 294.84375 C 226.566406 297.539062 226.355469 299.355469 224.710938 300.679688 Z M 224.710938 300.679688 " fill-opacity="1" fill-rule="nonzero"/></g></g></g><g fill="#ffffff" fill-opacity="1"><g transform="translate(163.451126, 200.479181)"><g><path d="M 24.3125 -38.84375 C 24.03125 -37.875 23.734375 -36.867188 23.421875 -35.828125 C 22.867188 -33.910156 22.300781 -31.945312 21.71875 -29.9375 C 16.082031 -10.300781 11.894531 5.125 9.15625 16.34375 C 6.425781 27.5625 4.800781 35.289062 4.28125 39.53125 C 3.757812 43.769531 4.003906 45.242188 5.015625 43.953125 C 6.023438 42.671875 7.476562 39.347656 9.375 33.984375 C 11.269531 28.628906 13.285156 21.957031 15.421875 13.96875 C 17.554688 5.976562 19.453125 -2.601562 21.109375 -11.78125 C 22.773438 -20.957031 23.84375 -29.976562 24.3125 -38.84375 Z M 23.34375 -62.578125 C 23.601562 -63.460938 23.875 -64.390625 24.15625 -65.359375 C 24.414062 -66.035156 24.648438 -66.722656 24.859375 -67.421875 C 25.140625 -68.398438 25.582031 -69.191406 26.1875 -69.796875 C 26.789062 -70.398438 27.660156 -70.722656 28.796875 -70.765625 C 29.609375 -70.765625 30.1875 -70.976562 30.53125 -71.40625 C 30.875 -71.84375 31.109375 -72.359375 31.234375 -72.953125 C 32.203125 -80.410156 33.128906 -87.875 34.015625 -95.34375 C 34.191406 -96.476562 34.078125 -97.25 33.671875 -97.65625 C 33.265625 -98.0625 32.460938 -98.367188 31.265625 -98.578125 C 24.285156 -99.617188 16.925781 -100.484375 9.1875 -101.171875 C 4.164062 -101.679688 -0.742188 -102.21875 -5.546875 -102.78125 C -10.359375 -103.34375 -14.832031 -104.125 -18.96875 -105.125 C -19.613281 -105.207031 -20.171875 -105.410156 -20.640625 -105.734375 C -21.109375 -106.054688 -21.414062 -106.617188 -21.5625 -107.421875 C -21.582031 -108.640625 -20.492188 -109.375 -18.296875 -109.625 C -13.679688 -110.082031 -7.890625 -109.878906 -0.921875 -109.015625 C 6.035156 -108.148438 12.800781 -107.132812 19.375 -105.96875 C 23.5 -105.28125 27.082031 -104.738281 30.125 -104.34375 C 30.332031 -104.332031 30.546875 -104.296875 30.765625 -104.234375 C 31.328125 -104.148438 31.90625 -104.085938 32.5 -104.046875 C 33.113281 -104.046875 33.617188 -104.171875 34.015625 -104.421875 C 34.410156 -104.679688 34.640625 -105.144531 34.703125 -105.8125 C 34.734375 -105.925781 34.769531 -106.050781 34.8125 -106.1875 C 34.832031 -106.726562 34.898438 -107.203125 35.015625 -107.609375 C 35.597656 -109.609375 36.753906 -110.550781 38.484375 -110.4375 C 39.597656 -110.414062 40.535156 -110.101562 41.296875 -109.5 C 42.054688 -108.90625 42.425781 -108.148438 42.40625 -107.234375 C 42.238281 -105.117188 42.703125 -103.691406 43.796875 -102.953125 C 44.890625 -102.222656 46.285156 -101.773438 47.984375 -101.609375 C 73.929688 -97.109375 99.734375 -92.148438 125.390625 -86.734375 C 127.066406 -86.523438 128.554688 -85.851562 129.859375 -84.71875 C 130.242188 -84.40625 130.488281 -84.046875 130.59375 -83.640625 C 130.695312 -83.234375 130.613281 -82.851562 130.34375 -82.5 C 130.21875 -82.300781 130.015625 -82.109375 129.734375 -81.921875 C 129.460938 -81.742188 129.175781 -81.648438 128.875 -81.640625 C 127.695312 -81.710938 126.460938 -81.882812 125.171875 -82.15625 C 116.160156 -84.269531 106.945312 -86.148438 97.53125 -87.796875 C 88.125 -89.441406 78.738281 -91 69.375 -92.46875 C 63.050781 -93.476562 56.859375 -94.488281 50.796875 -95.5 C 48.941406 -95.800781 47.078125 -96.070312 45.203125 -96.3125 C 43.984375 -96.539062 43.1875 -96.503906 42.8125 -96.203125 C 42.4375 -95.898438 42.191406 -95.085938 42.078125 -93.765625 C 41.171875 -84.722656 40.015625 -75.726562 38.609375 -66.78125 C 37.210938 -57.84375 35.742188 -48.914062 34.203125 -40 C 32.347656 -29.53125 30.128906 -18.304688 27.546875 -6.328125 C 24.960938 5.640625 21.9375 17.46875 18.46875 29.15625 C 15 40.851562 11.003906 51.503906 6.484375 61.109375 C 5.578125 63.160156 4.445312 65.109375 3.09375 66.953125 C 2.28125 68.015625 1.332031 68.65625 0.25 68.875 C -0.832031 69.09375 -1.972656 68.96875 -3.171875 68.5 C -5.398438 67.851562 -6.707031 66.441406 -7.09375 64.265625 C -7.507812 60.222656 -7.289062 56.265625 -6.4375 52.390625 C -2.738281 33.421875 1.4375 15.289062 6.09375 -2 C 10.75 -19.300781 15.765625 -36.96875 21.140625 -55 C 21.867188 -57.488281 22.601562 -60.015625 23.34375 -62.578125 Z M 23.34375 -62.578125 "/></g></g></g></svg>